<svg
    xmlns="http://www.w3.org/2000/svg"
    viewBox="0 0 29 16"
    id="vector">
    <defs>
        <clipPath id="clip_group_1">
            <path d="M 0 16.714 L 20.89 16.714 L 20.89 0 L 0 0 Z"/>
        </clipPath>
    </defs>
    <path
        id="path"
        d="M 29.434 6.883 L 24.701 11.52 C 24.574 11.644 24.404 11.714 24.226 11.715 C 24.048 11.715 23.877 11.646 23.75 11.522 C 23.623 11.398 23.549 11.229 23.545 11.051 L 23.545 8.401 L 19.711 8.401 C 19.593 8.403 19.477 8.373 19.375 8.315 C 19.272 8.258 19.186 8.174 19.127 8.073 C 19.067 7.971 19.035 7.856 19.034 7.738 L 19.034 5.089 C 19.035 4.971 19.067 4.856 19.127 4.755 C 19.187 4.654 19.272 4.57 19.375 4.512 C 19.477 4.455 19.593 4.425 19.711 4.427 L 23.545 4.427 L 23.545 1.777 C 23.549 1.599 23.623 1.43 23.75 1.306 C 23.877 1.182 24.048 1.113 24.226 1.113 C 24.404 1.114 24.574 1.184 24.701 1.308 L 29.434 5.945 C 29.517 6.027 29.577 6.129 29.608 6.242 C 29.638 6.355 29.638 6.473 29.608 6.586 C 29.577 6.699 29.517 6.801 29.434 6.883 Z"
        fill="#ffffff"
        stroke-width="1"/>
    <g id="group_2">
        <g id="wrapper">
            <g
                id="group_1"
                clip-path="url(#clip_group_1)">
                <g id="group">
                    <path
                        id="path_1"
                        d="M 19.151 0 L 1.739 0 C 1.278 0.002 0.836 0.186 0.51 0.511 C 0.185 0.837 0.001 1.279 -0.001 1.74 L -0.001 14.972 C 0 15.433 0.184 15.876 0.51 16.202 C 0.836 16.528 1.278 16.712 1.739 16.714 L 19.151 16.714 C 19.612 16.712 20.054 16.528 20.38 16.202 C 20.706 15.876 20.89 15.433 20.891 14.972 L 20.891 1.74 C 20.889 1.279 20.705 0.837 20.38 0.511 C 20.054 0.186 19.612 0.002 19.151 0 M 1.739 1.393 L 19.151 1.393 C 19.242 1.396 19.33 1.433 19.394 1.498 C 19.459 1.562 19.496 1.65 19.499 1.741 L 19.499 4.178 L 1.392 4.178 L 1.392 1.74 C 1.395 1.649 1.432 1.561 1.497 1.497 C 1.561 1.432 1.649 1.395 1.74 1.392 M 19.151 15.322 L 1.739 15.322 C 1.647 15.319 1.56 15.282 1.495 15.217 C 1.431 15.152 1.393 15.065 1.391 14.973 L 1.391 8.357 L 19.498 8.357 L 19.498 14.972 C 19.496 15.064 19.458 15.151 19.394 15.216 C 19.329 15.281 19.242 15.318 19.15 15.321 M 2.785 13.927 L 5.569 13.927 L 5.569 12.535 L 2.785 12.535 Z M 6.961 13.927 L 11.141 13.927 L 11.141 12.535 L 6.962 12.535 Z"
                        fill="#ffffff"
                        stroke-width="1"/>
                </g>
            </g>
        </g>
    </g>
</svg>
