<svg id="Icono-menu-carrito-w" xmlns="http://www.w3.org/2000/svg" width="32.592" height="36.667" viewBox="0 0 32.592 36.667">
  <path id="Shape" d="M31.691,36.667H.968a1.044,1.044,0,0,1-.819-.233,1.053,1.053,0,0,1-.123-.849q.361-2.724.718-5.453.311-2.373.624-4.747l.341-2.571,1.1-8.27q.151-1.131.3-2.26.167-1.269.337-2.538A.731.731,0,0,1,4.3,8.992c.826,0,1.651,0,2.483,0h.007c.848,0,1.7,0,2.575,0,0-.245,0-.484,0-.72,0-.471,0-.912,0-1.359A6.915,6.915,0,0,1,16.346,0h.148a6.92,6.92,0,0,1,6.735,6.705c.009.5.006.982,0,1.5,0,.259,0,.52,0,.787h5.064c.555,0,.778.2.85.762q.54,4.091,1.078,8.179l.005.041q.632,4.8,1.266,9.6c.321,2.443.654,4.924.976,7.323l.109.814a.865.865,0,0,1-.14.71A.947.947,0,0,1,31.691,36.667ZM16.322,4.141a2.742,2.742,0,0,0-2.779,2.438,12.923,12.923,0,0,0-.027,1.628c.006.248.012.5.012.756h5.549l0-.688V8.246c0-.475,0-.924,0-1.383a2.763,2.763,0,0,0-2.614-2.719C16.418,4.142,16.37,4.141,16.322,4.141Z" fill="#fff"/>
  <path id="Shape_Copy" data-name="Shape Copy" d="M10.041,17.759h0a10.58,10.58,0,0,0,.069-2.417.1.1,0,0,1-.014.016l-.025.024a.124.124,0,0,0-.033.041.308.308,0,0,0-.024.062.232.232,0,0,1-.035.078H9.97a.021.021,0,0,1-.014-.006c-.006,0-.011-.008-.014-.008l-.005,0c-.03.061-.058.123-.088.188l-.022.047L9.8,15.769l-.026-.019a.837.837,0,0,1-.146.291l-.037-.023L9.569,16a.386.386,0,0,0-.021.033l-.025.049a1.429,1.429,0,0,1-.074.132.193.193,0,0,1-.055.065.312.312,0,0,0-.025-.029c-.008.019-.015.039-.021.058a.232.232,0,0,1-.1.146l-.032-.029L9.187,16.4c-.014.028-.027.057-.039.084A.407.407,0,0,1,9,16.7l-.06-.065c-.012.021-.023.043-.034.064a.512.512,0,0,1-.159.209l-.071-.075L8.649,16.8a.47.47,0,0,1-.238.243l-.045-.085a.369.369,0,0,1-.156.163l-.027-.066-.016-.039c-.119.1-.165.136-.213.171a.159.159,0,0,0-.025-.033.14.14,0,0,1-.022-.029l-.453.29a3.218,3.218,0,0,1,.291-.471l-.031-.019-.033-.02.007-.009.181-.226-.043-.02-.047-.021a.53.53,0,0,1,.269-.242l-.069-.032-.069-.032a.51.51,0,0,1,.272-.187l-.05-.044-.049-.044a.508.508,0,0,1,.329-.15c-.021-.021-.035-.036-.051-.055l-.01-.011a.71.71,0,0,1,.337-.154l-.025-.027-.018-.02a.355.355,0,0,1,.193-.119c.015,0,.038-.025.039-.034a.1.1,0,0,0,0-.029c-.005-.024-.007-.033.075-.068a.627.627,0,0,0,.085-.046.518.518,0,0,1,.106-.054c0-.007,0-.018.008-.031a.383.383,0,0,1-.076.022.567.567,0,0,0-.058.014.246.246,0,0,0-.065.042l-.007.005-.1.08-.005,0c-.074.058-.151.118-.23.172a.112.112,0,0,1-.062.022c-.041,0-.079-.032-.107-.093l-.024.02a.59.59,0,0,1-.05.038l-.128.084c-.1.066-.2.134-.308.192a.107.107,0,0,1-.048.01.4.4,0,0,1-.14-.037l-.108.063c-.085.05-.172.1-.263.145l-.006,0A.627.627,0,0,1,7.2,16.1c-.012,0-.016-.007-.024-.019a.157.157,0,0,0-.039-.045.024.024,0,0,0-.015,0,.2.2,0,0,0-.081.029l-.024.013a.792.792,0,0,1-.371.132.385.385,0,0,1-.059,0c0-.037-.005-.072-.01-.119v-.011a1.473,1.473,0,0,1-.719.31c0-.047-.007-.086-.011-.131l0-.059a1.088,1.088,0,0,1-.7.3v-.141c0-.046,0-.091,0-.141l-.009.007a1.273,1.273,0,0,1-.547.167.707.707,0,0,1-.124-.011c.015-.047.029-.091.043-.136s.036-.112.055-.172a1.133,1.133,0,0,1-.48.109,1.269,1.269,0,0,1-.28-.033c.023-.067.04-.122.054-.167l.01-.033-.381-.027L3.237,15.9l.006-.031c.011-.055.018-.091.025-.123a7.041,7.041,0,0,1-1.154-.214l1.1-.3a.287.287,0,0,1-.012-.072.329.329,0,0,0-.016-.089c.108-.023.225-.039.456-.073l.117-.017-.1-.218a.568.568,0,0,1,.224-.043,1.455,1.455,0,0,1,.255.03c-.017-.047-.032-.09-.05-.138l-.019-.053a1.185,1.185,0,0,1,.413-.081.863.863,0,0,1,.306.055c-.008-.1-.015-.192-.024-.291a.731.731,0,0,1,.168-.019,1.5,1.5,0,0,1,.393.069c.048.013.1.026.145.037l0-.051c0-.042-.006-.085-.011-.136a.526.526,0,0,1,.157-.023,1.236,1.236,0,0,1,.4.09c.059.02.119.041.18.058,0-.061,0-.12,0-.183a.341.341,0,0,1,.1-.015.656.656,0,0,1,.262.075c.04.018.081.036.122.049,0-.005,0-.018,0-.031a.5.5,0,0,0-.007-.05.277.277,0,0,1,.067-.008.655.655,0,0,1,.113.012c.1.017.2.044.3.07l.128.034.048.009.034.006.017-.105.006-.037a1.692,1.692,0,0,1,.667.186c0-.021,0-.04,0-.059l0-.032a.5.5,0,0,1-.178-.041c-.029-.014-.016-.044,0-.073s.017-.038.011-.049a.022.022,0,0,0-.016-.01c-.207-.043-.413-.082-.632-.122l-.2-.037.029-.072c.02-.048.036-.086.057-.135a2.6,2.6,0,0,1-1.038-.233c.021-.066.039-.117.059-.172l.013-.038-.061-.02-.062-.019-.2-.048c-.151-.036-.306-.073-.455-.122a.676.676,0,0,1-.247-.125c.007-.009.033-.047.052-.075l.019-.029a2.044,2.044,0,0,0-.2-.022.759.759,0,0,1-.532-.184l.069-.131c.022-.041.042-.079.062-.118-.1-.022-.193-.038-.287-.053a1.342,1.342,0,0,1-.8-.313l.068-.105.089-.137c-.075-.021-.152-.039-.225-.056a1.678,1.678,0,0,1-.793-.341l.068-.106.175-.27a1.537,1.537,0,0,1-.955-.56c.059-.055.111-.1.162-.147l.071-.063A1.209,1.209,0,0,1,1.526,9.8l.266-.2.033-.024L1.714,9.5c-.318-.235-.464-.342-.6-.458A.5.5,0,0,0,1.2,8.932a.445.445,0,0,1,.069-.088L0,7.641a10.5,10.5,0,0,1,1.72.55c.017-.054.036-.115.071-.232l.891.4c.011-.065.025-.144.043-.241l.014-.079a1.759,1.759,0,0,1,.973.66l.024-.128c.022-.121.043-.234.066-.361a1.688,1.688,0,0,1,.8.715c.037-.067.069-.13.1-.191s.064-.125.1-.192a1.661,1.661,0,0,1,.727.92l.047-.073.112-.174a2.285,2.285,0,0,1,.75.945l.025-.039c.031-.048.057-.087.083-.13a1.072,1.072,0,0,1,.5.5l.016.025c.025.04.076.1.108.1a.244.244,0,0,0,.089-.032.068.068,0,0,1,.032-.012c.028,0,.062.045.185.213.087.118.164.246.24.369.037.061.074.122.113.182.115.012.228.033.271.1.108.162.2.337.291.506.034.063.066.124.1.185.013.025.025.051.038.081l.021.048a.277.277,0,0,1,.158-.066.137.137,0,0,1,.123.087c.079.153.146.3.217.455l.056.122a.214.214,0,0,0,.056.076l.008.008a.238.238,0,0,0,.1.058.179.179,0,0,1,.1.069c.027.043.053.09.079.137.086.154.168.3.25.3H9.7c-.1,0-.2-.231-.3-.455-.029-.067-.057-.132-.086-.191a.426.426,0,0,1-.047-.129c0-.016-.008-.036-.015-.064a.414.414,0,0,0-.067-.129l-.007-.01c-.046-.073-.094-.145-.141-.218-.093-.143-.19-.29-.276-.44a.184.184,0,0,1-.022-.156.281.281,0,0,1,.177-.146l-.027-.04c-.026-.039-.048-.073-.068-.108-.036-.068-.074-.135-.111-.2-.115-.208-.233-.423-.327-.642-.031-.072-.006-.186.075-.348l-.076-.165c-.086-.187-.176-.379-.247-.568-.128-.337-.121-.342-.05-.391a.448.448,0,0,0,.075-.063.5.5,0,0,0-.029-.266l-.015-.034a1.573,1.573,0,0,1-.174-.994H8.18a2.111,2.111,0,0,0-.25-.387.769.769,0,0,1-.209-.572h.35l-.006-.006a2.275,2.275,0,0,1-.445-1.346c.093.007.18.008.265.01s.162,0,.249.009l0-.006a2,2,0,0,1-.19-1.262l.181.074.365.151a2.092,2.092,0,0,1-.028-1.4l.282.117.074.031.052-.342,0-.018c.039-.26.079-.522.121-.793l.154.044.123.035A12.762,12.762,0,0,1,9.83,0l.381,2.051a.51.51,0,0,1,.135-.014.6.6,0,0,0,.163-.018c.029.242.044.482.078,1.058.07-.026.135-.054.2-.083s.136-.057.209-.085a1.385,1.385,0,0,1-.048.857,1.086,1.086,0,0,0,.171-.066,1.161,1.161,0,0,1,.19-.073,1.675,1.675,0,0,1-.058,1.239h.532a2.7,2.7,0,0,1-.181,1.169c-.028.09-.055.18-.081.27h.343a1.587,1.587,0,0,1-.2,1c-.046.1-.093.212-.134.322l.166.015.166.015a.9.9,0,0,1-.159.652,2.438,2.438,0,0,0-.109.219h.051l.1,0a.825.825,0,0,1-.035.328c-.046.183-.111.365-.174.54-.027.074-.053.148-.078.223-.013.037-.022.074-.032.118l-.008.031.066.016.191.048a3.1,3.1,0,0,1-.438,1.19c.06.013.107.021.165.032l.1.018c-.043.107-.086.212-.129.315-.088.213-.17.415-.25.622a.026.026,0,0,0,0,.023c.008.013.031.017.057.021s.077.012.072.05a.9.9,0,0,1-.131.308,1.134,1.134,0,0,0-.111.231.491.491,0,0,0-.03.206c0,.03,0,.068,0,.129a.661.661,0,0,1-.052.22.022.022,0,0,0,0-.006.494.494,0,0,1,.109-.128.854.854,0,0,0,.074-.075.37.37,0,0,0,.049-.1l.006-.017c.025-.066.049-.133.073-.2.049-.137.1-.276.158-.41a.14.14,0,0,1,.132-.1.285.285,0,0,1,.147.052l.013-.037c.013-.037.023-.069.037-.1.03-.065.06-.131.09-.2.078-.175.158-.353.253-.519.041-.073.163-.1.264-.118.034-.062.067-.125.1-.188.067-.129.136-.261.215-.386l0-.006c.113-.179.14-.221.168-.221a.074.074,0,0,1,.03.01.243.243,0,0,0,.087.026c.037,0,.082-.069.1-.11l.015-.028a1.07,1.07,0,0,1,.461-.528l.047.063,0,.008h0l.068.09a2.281,2.281,0,0,1,.682-.994L14.5,9.2a1.67,1.67,0,0,1,.662-.969c.039.061.073.118.108.174s.077.127.121.194l0-.007a1.678,1.678,0,0,1,.749-.762l.074.289.049.192a1.758,1.758,0,0,1,.926-.725c.023.085.041.157.056.219l.024.094.52-.278.342-.183c.04.107.065.172.086.226A10.547,10.547,0,0,1,19.9,7L18.712,8.291a.452.452,0,0,1,.078.087.509.509,0,0,0,.087.1c-.135.132-.278.253-.623.545l-.05.042.2.128.11.07a1.194,1.194,0,0,1-.612.409l.119.093.129.1a1.551,1.551,0,0,1-.913.625l.258.344.011.014a1.688,1.688,0,0,1-.77.395c-.073.023-.146.045-.219.071.051.07.1.136.163.219l.009.012a1.34,1.34,0,0,1-.778.367c-.093.022-.187.044-.279.071l.062.1c.029.046.058.092.087.14a.748.748,0,0,1-.514.22,2.006,2.006,0,0,0-.205.038c.008.009.036.044.057.07l.021.026a.672.672,0,0,1-.237.141c-.14.058-.289.1-.432.149-.069.021-.138.043-.205.065a1.02,1.02,0,0,0-.1.037l-.024.01.035.083c.016.038.032.077.052.122a2.615,2.615,0,0,1-1.021.3c.025.054.046.095.074.151l.025.048-.239.062c-.2.053-.391.1-.581.156a.022.022,0,0,0-.016.011c-.005.012,0,.029.014.048s.03.057,0,.073a.746.746,0,0,1-.272.068.942.942,0,0,0-.211.042.389.389,0,0,0-.145.075l.042-.018.122-.042a.117.117,0,0,1,.038-.007c.049,0,.083.041.094.114l.035-.014c.017-.007.032-.014.048-.019l.138-.043a3.311,3.311,0,0,1,.325-.092l.018,0a.272.272,0,0,1,.143.073l.13-.033c.084-.022.17-.044.257-.059l.011,0a1.147,1.147,0,0,1,.137-.019c.024,0,.026.008.031.024a.15.15,0,0,0,.024.05c.006.008.023.01.036.01a.232.232,0,0,0,.056-.008l.031-.007a1.126,1.126,0,0,1,.245-.037.389.389,0,0,1,.168.035c-.006.037-.013.07-.024.119a1.769,1.769,0,0,1,.548-.114.9.9,0,0,1,.178.017c-.007.038-.013.069-.019.1l-.015.073a1.154,1.154,0,0,1,.489-.123.82.82,0,0,1,.217.029l-.036.122c-.013.042-.025.084-.038.13l.029-.006a1.963,1.963,0,0,1,.31-.034.7.7,0,0,1,.313.069l-.121.182-.045.068a1.18,1.18,0,0,1,.182-.015,1.066,1.066,0,0,1,.521.14l-.036.054-.073.109.19.069.008,0,.361.131c-.033.061-.052.1-.067.13a6.592,6.592,0,0,1,.983.488l-1.062-.011a.264.264,0,0,1-.007.065.3.3,0,0,0-.008.085c-.118-.008-.238-.024-.525-.063l-.013,0,.01.054c.01.056.02.109.029.168a.5.5,0,0,1-.063,0,.824.824,0,0,1-.37-.115c0,.042,0,.08.008.12,0,.023,0,.046.005.071h-.007l-.1,0a.886.886,0,0,1-.546-.164l-.016.084-.036.185a1.023,1.023,0,0,1-.489-.187c-.04-.024-.081-.048-.122-.071l-.021.109-.012.062h-.012a.831.831,0,0,1-.47-.2c-.047-.033-.1-.066-.146-.1l-.024.082-.024.082h-.011a.465.465,0,0,1-.3-.144,1.217,1.217,0,0,0-.1-.077c0,.006,0,.022-.006.038s-.005.032-.006.038a.4.4,0,0,1-.16-.05c-.089-.043-.175-.094-.259-.144l-.1-.057c-.014-.008-.03-.016-.047-.024l-.023-.011-.027.057-.031.066a1.541,1.541,0,0,1-.55-.336l-.025.065-.024.062-.1-.066c-.113-.075-.22-.146-.331-.216l-.009,0c-.01,0-.015.015-.019.029s-.012.029-.025.029a.427.427,0,0,1-.146-.1.59.59,0,0,0-.1-.079.249.249,0,0,0-.1-.035l-.063-.011c-.079-.019-.121-.04-.121-.061v.084s.009,0,.019.008l.021.006c.022.007.032.035.043.062l0,.011.055.018c.044.014.09.029.134.047l.007,0c.074.03.074.03.07.046a.075.075,0,0,0,0,.028c0,.011.024.021.039.026l.009,0a.324.324,0,0,1,.184.111l-.021.023-.021.022a.7.7,0,0,1,.337.152L12,15.775l-.04.042a.519.519,0,0,1,.329.148c-.017.017-.034.032-.051.047l-.047.042H12.2a.509.509,0,0,1,.264.186l-.049.022-.089.04a.554.554,0,0,1,.27.242c-.036.015-.063.028-.085.039a1.368,1.368,0,0,0,.09.124l.091.115-.039.023-.026.015a3.15,3.15,0,0,1,.292.471l-.453-.289a.131.131,0,0,1-.022.029.177.177,0,0,0-.025.031c-.047-.034-.092-.071-.213-.171l-.005.013c-.013.031-.024.06-.038.093A.381.381,0,0,1,12,16.876l-.023.042-.023.044a.472.472,0,0,1-.237-.244l-.023.024-.072.076a.5.5,0,0,1-.159-.208c-.011-.022-.022-.043-.034-.064l-.06.065a.418.418,0,0,1-.153-.215c-.012-.027-.024-.054-.037-.08l-.064.058a.236.236,0,0,1-.095-.146A.618.618,0,0,0,11,16.167s0,.007-.008.012l-.018.018a.212.212,0,0,1-.054-.062c-.027-.042-.05-.088-.071-.127l-.029-.056,0-.008a.2.2,0,0,0-.016-.026l-.028.018-.03.02a.779.779,0,0,1-.146-.292l-.025.018-.031.023-.009-.02c-.034-.075-.067-.146-.1-.215a.006.006,0,0,0-.005,0l-.006,0a8.316,8.316,0,0,1-.066,1.74A2.964,2.964,0,0,1,10.041,17.759Z" transform="translate(6.547 14.404)" fill="#4f7e3a"/>
</svg>
